<svg width="12" height="22" viewBox="0 0 12 22" fill="none" xmlns="http://www.w3.org/2000/svg">
<path d="M11.7083 20.2931C11.8012 20.386 11.8749 20.4963 11.9252 20.6177C11.9755 20.7391 12.0013 20.8692 12.0013 21.0006C12.0013 21.132 11.9755 21.2621 11.9252 21.3835C11.8749 21.5048 11.8012 21.6151 11.7083 21.7081C11.6154 21.801 11.5051 21.8747 11.3837 21.9249C11.2623 21.9752 11.1322 22.0011 11.0008 22.0011C10.8694 22.0011 10.7393 21.9752 10.6179 21.9249C10.4965 21.8747 10.3862 21.801 10.2933 21.7081L0.293286 11.7081C0.20031 11.6152 0.126551 11.5049 0.0762272 11.3835C0.0259029 11.2621 0 11.132 0 11.0006C0 10.8691 0.0259029 10.739 0.0762272 10.6176C0.126551 10.4962 0.20031 10.3859 0.293286 10.2931L10.2933 0.293056C10.4809 0.105415 10.7354 -5.23096e-09 11.0008 0C11.2662 5.23096e-09 11.5206 0.105415 11.7083 0.293056C11.8959 0.480697 12.0013 0.735192 12.0013 1.00056C12.0013 1.26592 11.8959 1.52042 11.7083 1.70806L2.41454 11.0006L11.7083 20.2931Z" fill="#FF7A00"/>
</svg>
